<?xml version="1.0" standalone="no"?>
<!DOCTYPE svg PUBLIC "-//W3C//DTD SVG 20010904//EN"
 "http://www.w3.org/TR/2001/REC-SVG-20010904/DTD/svg10.dtd">
<svg version="1.0" xmlns="http://www.w3.org/2000/svg"
 width="300.000000pt" height="288.000000pt" viewBox="0 0 300.000000 288.000000"
 preserveAspectRatio="xMidYMid meet">
<metadata>
Created by potrace 1.10, written by Peter Selinger 2001-2011
</metadata>
<g transform="translate(0.000000,288.000000) scale(0.100000,-0.100000)"
fill="#000000" stroke="none">
<path d="M330 1515 l0 -1015 40 0 40 0 0 1015 0 1015 -40 0 -40 0 0 -1015z"/>
<path d="M490 2491 c0 -35 3 -39 28 -43 44 -6 52 0 52 43 0 39 0 39 -40 39
-40 0 -40 0 -40 -39z"/>
<path d="M649 2508 c0 -2 -2 -20 -5 -40 -4 -33 -2 -38 15 -38 11 0 26 -2 34
-6 9 -3 19 6 27 25 18 43 7 61 -35 61 -19 0 -35 -1 -36 -2z"/>
<path d="M799 2459 c-15 -38 -7 -56 31 -64 37 -8 36 -9 44 35 6 33 4 36 -28
46 -33 10 -36 9 -47 -17z"/>
<path d="M946 2408 c-12 -62 60 -82 78 -20 11 39 11 38 -35 47 -35 6 -36 5
-43 -27z"/>
<path d="M1095 2363 c-8 -19 -15 -37 -15 -38 0 -5 61 -35 70 -35 6 0 34 70 28
73 -1 1 -18 10 -36 19 l-32 17 -15 -36z"/>
<path d="M1236 2295 c-11 -19 -17 -36 -15 -38 55 -32 67 -34 85 -9 22 28 16
50 -18 66 -17 9 -32 16 -32 16 -1 0 -10 -16 -20 -35z"/>
<path d="M1371 2214 c-7 -19 -11 -36 -9 -37 1 -1 13 -8 25 -14 32 -18 36 -17
61 17 l23 30 -33 20 c-45 27 -52 26 -67 -16z"/>
<path d="M1518 2152 c-39 -48 -39 -47 -6 -72 l31 -23 24 27 c29 34 29 38 -6
64 -27 20 -30 20 -43 4z"/>
<path d="M1639 2052 c-30 -35 -31 -43 -10 -63 26 -24 37 -24 64 1 24 23 18 42
-19 66 -17 12 -22 11 -35 -4z"/>
<path d="M1741 1935 l-25 -24 24 -26 c29 -31 32 -31 65 -2 l27 22 -22 28 c-26
33 -38 33 -69 2z"/>
<path d="M1857 1827 c-32 -27 -32 -28 -8 -55 18 -22 51 -30 51 -14 0 5 9 13
20 18 20 9 20 9 -2 41 -13 18 -26 33 -29 33 -3 0 -18 -10 -32 -23z"/>
<path d="M1948 1701 c-23 -23 -23 -33 1 -60 l20 -23 34 24 35 23 -24 28 c-27
31 -42 33 -66 8z"/>
<path d="M2060 1592 c0 -6 -9 -14 -20 -17 -23 -7 -25 -26 -7 -58 6 -12 13 -24
14 -25 1 -2 17 4 35 15 18 10 34 19 36 19 2 1 -5 16 -16 35 -18 32 -42 50 -42
31z"/>
<path d="M2117 1443 c-22 -11 -26 -19 -21 -36 11 -39 32 -53 54 -39 11 6 27
12 35 12 13 0 13 4 4 23 -7 12 -15 28 -19 36 -9 20 -20 21 -53 4z"/>
<path d="M2205 1310 c-3 -5 -15 -10 -27 -10 -18 0 -20 -4 -14 -32 9 -46 20
-53 58 -38 43 17 41 15 29 37 -5 10 -12 26 -15 36 -6 19 -21 23 -31 7z"/>
<path d="M2242 1159 c-19 -7 -23 -15 -20 -41 3 -30 6 -33 41 -36 35 -3 37 -2
37 27 0 59 -12 69 -58 50z"/>
<path d="M2295 1010 c-4 -6 -13 -9 -21 -6 -15 6 -18 -3 -14 -44 2 -30 15 -39
44 -32 36 9 44 20 37 55 -7 32 -33 48 -46 27z"/>
<path d="M2294 847 c-2 -7 -2 -24 0 -37 2 -14 5 -27 5 -30 1 -3 19 -4 41 -2
42 4 46 12 34 60 -5 17 -14 22 -40 22 -19 0 -37 -6 -40 -13z"/>
<path d="M2337 702 c-26 -3 -28 -7 -25 -40 3 -36 4 -37 43 -37 39 0 40 1 40
37 0 40 -9 46 -58 40z"/>
<path d="M2314 535 c-10 -24 5 -35 47 -35 35 0 39 3 39 25 0 23 -4 25 -40 25
-26 0 -43 -5 -46 -15z"/>
</g>
</svg>
