<?xml version="1.0" standalone="no"?>
<!DOCTYPE svg PUBLIC "-//W3C//DTD SVG 20010904//EN"
 "http://www.w3.org/TR/2001/REC-SVG-20010904/DTD/svg10.dtd">
<svg version="1.0" xmlns="http://www.w3.org/2000/svg"
 width="300.000000pt" height="323.000000pt" viewBox="0 0 300.000000 323.000000"
 preserveAspectRatio="xMidYMid meet">
<metadata>
Created by potrace 1.10, written by Peter Selinger 2001-2011
</metadata>
<g transform="translate(0.000000,323.000000) scale(0.100000,-0.100000)"
fill="#000000" stroke="none">
<path d="M924 2896 c-101 -32 -155 -107 -164 -226 l-5 -75 -190 -5 c-185 -5
-191 -6 -237 -33 -74 -43 -108 -106 -108 -200 0 -88 55 -169 138 -204 l32 -13
0 -775 c0 -767 0 -775 21 -832 28 -72 94 -144 162 -174 l52 -24 640 0 640 0
57 28 c67 33 111 80 147 157 l26 55 3 782 3 782 33 16 c76 36 136 128 136 208
0 50 -22 105 -58 147 -60 70 -74 74 -287 80 l-190 5 -6 70 c-8 106 -52 175
-139 221 -32 17 -64 19 -350 21 -236 2 -325 -1 -356 -11z m651 -120 c49 -21
76 -69 73 -131 l-3 -50 -382 -3 -383 -2 0 55 c0 69 19 107 62 128 46 23 579
25 633 3z m575 -335 c16 -16 32 -40 36 -55 8 -33 -11 -81 -44 -106 -24 -20
-45 -20 -873 -20 -636 0 -855 3 -874 12 -49 22 -69 96 -41 147 29 52 -1 50
914 51 l854 0 28 -29z m-135 -1076 l0 -770 -27 -47 c-15 -25 -45 -57 -65 -70
l-38 -23 -598 -3 c-399 -2 -610 1 -637 8 -51 14 -98 54 -121 105 -17 38 -19
85 -19 808 l0 767 753 -2 752 -3 0 -770z"/>
<path d="M866 1954 c-14 -14 -16 -83 -16 -613 0 -654 -3 -624 57 -623 16 0 34
9 45 22 17 21 18 57 18 604 0 510 -2 584 -16 604 -18 26 -65 30 -88 6z"/>
<path d="M1216 1948 c-14 -20 -16 -94 -16 -604 0 -547 1 -583 18 -604 22 -28
70 -30 89 -4 10 14 13 134 13 610 0 525 -2 594 -16 608 -23 24 -70 20 -88 -6z"/>
<path d="M1576 1954 c-14 -14 -16 -83 -16 -609 0 -526 2 -595 16 -609 24 -25
58 -24 87 1 16 15 17 57 17 608 0 561 -1 593 -18 608 -23 21 -66 22 -86 1z"/>
</g>
</svg>
