<?xml version="1.0" standalone="no"?>
<!DOCTYPE svg PUBLIC "-//W3C//DTD SVG 20010904//EN"
 "http://www.w3.org/TR/2001/REC-SVG-20010904/DTD/svg10.dtd">
<svg version="1.0" xmlns="http://www.w3.org/2000/svg"
 width="288.000000pt" height="300.000000pt" viewBox="0 0 288.000000 300.000000"
 preserveAspectRatio="xMidYMid meet">
<metadata>
Created by potrace 1.10, written by Peter Selinger 2001-2011
</metadata>
<g transform="translate(0.000000,300.000000) scale(0.100000,-0.100000)"
fill="#000000" stroke="none">
<path d="M2176 2385 c-2 -5 -1 -25 2 -43 4 -31 7 -33 41 -30 35 3 36 4 36 43
0 39 0 40 -37 40 -21 0 -39 -4 -42 -10z"/>
<path d="M2332 2358 c2 -35 7 -43 23 -43 16 0 21 8 23 43 3 39 2 42 -23 42
-25 0 -26 -3 -23 -42z"/>
<path d="M2037 2373 c-14 -4 -17 -13 -15 -41 3 -34 6 -37 33 -38 46 -1 51 3
47 46 -4 41 -14 46 -65 33z"/>
<path d="M1897 2342 c-32 -4 -45 -26 -27 -47 6 -8 9 -19 5 -25 -7 -11 5 -13
45 -10 30 2 42 18 34 45 -9 30 -26 41 -57 37z"/>
<path d="M1721 2291 c-10 -7 -11 -16 -4 -37 8 -24 15 -29 44 -29 32 0 34 2 37
38 3 36 2 37 -30 37 -18 0 -39 -4 -47 -9z"/>
<path d="M1615 2250 c-3 -5 -15 -10 -25 -10 -24 0 -36 -18 -21 -33 6 -6 11
-20 11 -30 0 -17 5 -19 32 -13 46 9 52 19 37 60 -13 37 -23 44 -34 26z"/>
<path d="M1486 2192 c-4 -7 -15 -12 -25 -12 -33 0 -43 -23 -25 -59 13 -25 20
-30 37 -25 39 11 52 31 40 56 -7 13 -13 30 -15 38 -3 10 -6 11 -12 2z"/>
<path d="M1325 2108 c-40 -24 -48 -37 -31 -54 9 -8 16 -20 16 -25 0 -13 26
-11 53 4 12 6 23 13 25 13 5 2 -32 74 -38 73 -3 0 -14 -5 -25 -11z"/>
<path d="M1187 2014 c-32 -27 -33 -37 -10 -64 22 -25 34 -25 62 -1 l23 20 -24
34 -23 35 -28 -24z"/>
<path d="M1063 1918 c-18 -13 -33 -26 -33 -29 0 -8 44 -59 51 -59 3 0 16 8 27
19 22 18 30 51 14 51 -5 0 -13 9 -18 20 -9 20 -9 20 -41 -2z"/>
<path d="M947 1810 c-34 -27 -34 -36 -1 -67 l26 -24 24 22 c30 28 30 31 1 64
l-22 27 -28 -22z"/>
<path d="M830 1683 l-21 -27 27 -23 c33 -28 35 -28 57 -3 22 26 22 43 -1 63
-25 23 -37 21 -62 -10z"/>
<path d="M732 1561 c-20 -27 -20 -30 -4 -43 48 -39 47 -39 72 -6 l23 31 -27
24 c-34 29 -38 29 -64 -6z"/>
<path d="M645 1430 c-8 -16 -15 -33 -15 -37 0 -9 70 -38 74 -31 1 1 8 16 16
31 13 27 13 30 -10 48 -34 26 -47 24 -65 -11z"/>
<path d="M566 1288 c-9 -17 -15 -32 -14 -33 2 0 15 -9 30 -18 36 -22 41 -22
56 10 16 36 15 43 -5 59 -29 22 -51 16 -67 -18z"/>
<path d="M499 1144 l-17 -35 35 -14 c20 -8 37 -15 39 -15 5 0 37 70 33 73 -10
7 -61 27 -67 27 -4 -1 -14 -16 -23 -36z"/>
<path d="M446 995 c-4 -20 -6 -39 -4 -41 2 -2 19 -5 38 -6 29 -3 35 1 44 25
12 32 3 44 -41 53 -29 6 -31 4 -37 -31z"/>
<path d="M404 846 c-10 -33 -9 -36 17 -47 38 -15 56 -7 64 31 8 37 9 36 -35
44 -33 6 -36 4 -46 -28z"/>
<path d="M374 716 c-3 -8 -4 -27 -2 -42 3 -23 8 -28 41 -31 31 -3 37 -1 37 16
0 11 2 26 5 33 4 9 -4 19 -20 26 -34 16 -54 15 -61 -2z"/>
<path d="M350 530 c0 -40 0 -40 39 -40 35 0 39 3 43 28 6 44 0 52 -43 52 -39
0 -39 0 -39 -40z"/>
<path d="M350 370 l0 -40 1015 0 1015 0 0 40 0 40 -1015 0 -1015 0 0 -40z"/>
</g>
</svg>
