<?xml version="1.0" standalone="no"?>
<!DOCTYPE svg PUBLIC "-//W3C//DTD SVG 20010904//EN"
 "http://www.w3.org/TR/2001/REC-SVG-20010904/DTD/svg10.dtd">
<svg version="1.0" xmlns="http://www.w3.org/2000/svg"
 width="300.000000pt" height="274.000000pt" viewBox="0 0 300.000000 274.000000"
 preserveAspectRatio="xMidYMid meet">
<metadata>
Created by potrace 1.10, written by Peter Selinger 2001-2011
</metadata>
<g transform="translate(0.000000,274.000000) scale(0.100000,-0.100000)"
fill="#000000" stroke="none">
<path d="M2080 2484 c-19 -8 -111 -91 -205 -185 l-171 -169 -516 0 c-330 0
-535 -4 -567 -11 -69 -15 -123 -56 -155 -120 l-26 -53 0 -680 c0 -449 4 -694
11 -719 13 -49 73 -115 124 -138 37 -17 84 -19 736 -19 l697 0 53 28 c39 20
62 41 84 77 l30 48 3 551 3 550 178 181 c156 158 179 186 191 228 15 54 8 122
-16 170 -24 47 -212 231 -261 256 -51 25 -141 28 -193 5z m13 -452 l127 -127
-425 -425 -425 -425 -130 130 -130 130 422 422 c233 233 425 423 428 423 3 0
63 -57 133 -128z m-854 -369 l-306 -308 -92 -266 c-50 -147 -91 -275 -91 -285
1 -24 18 -47 48 -63 19 -10 67 -1 320 64 l297 76 308 307 307 307 0 -453 0
-453 -25 -24 -24 -25 -671 0 -671 0 -24 25 -25 24 0 664 c0 657 0 665 21 691
l20 26 457 0 457 0 -306 -307z m-37 -674 c-9 -9 -245 -69 -250 -64 -3 2 15 58
38 125 l43 121 88 -87 c49 -49 85 -92 81 -95z"/>
</g>
</svg>
