<?xml version="1.0" standalone="no"?>
<!DOCTYPE svg PUBLIC "-//W3C//DTD SVG 20010904//EN"
 "http://www.w3.org/TR/2001/REC-SVG-20010904/DTD/svg10.dtd">
<svg version="1.0" xmlns="http://www.w3.org/2000/svg"
 width="300.000000pt" height="297.000000pt" viewBox="0 0 300.000000 297.000000"
 preserveAspectRatio="xMidYMid meet">
<metadata>
Created by potrace 1.10, written by Peter Selinger 2001-2011
</metadata>
<g transform="translate(0.000000,297.000000) scale(0.100000,-0.100000)"
fill="#000000" stroke="none">
<path d="M349 2664 c-24 -25 -24 -27 -27 -267 -4 -271 2 -308 48 -332 35 -18
51 -19 85 -3 45 20 55 55 55 190 l0 122 298 -297 c297 -295 299 -297 341 -297
56 0 91 33 91 87 0 36 -13 51 -302 340 l-303 303 128 0 c144 0 176 10 196 59
15 34 7 67 -22 99 -20 22 -23 22 -292 22 l-272 0 -24 -26z"/>
<path d="M1915 2665 c-38 -37 -35 -95 6 -129 29 -25 35 -26 162 -26 l132 0
-303 -303 c-334 -334 -331 -331 -276 -396 21 -25 33 -31 67 -31 41 0 45 4 337
295 162 162 299 295 303 295 4 0 7 -60 7 -134 l0 -134 32 -27 c26 -22 39 -26
67 -21 21 3 45 16 59 31 22 26 22 31 22 281 0 266 -5 302 -45 318 -9 3 -136 6
-281 6 l-265 0 -24 -25z"/>
<path d="M814 1109 l-302 -302 -4 137 c-3 137 -3 138 -31 162 -37 32 -87 32
-124 0 l-28 -24 -3 -253 c-3 -275 0 -299 49 -324 41 -22 507 -22 548 0 54 28
63 94 18 143 -19 21 -28 22 -154 22 -73 0 -133 3 -133 7 0 4 133 141 295 303
283 283 295 297 295 334 0 50 -44 96 -91 96 -30 0 -62 -29 -335 -301z"/>
<path d="M1660 1397 c-27 -14 -50 -51 -50 -83 0 -37 51 -93 328 -364 150 -146
272 -268 272 -272 0 -5 -61 -8 -135 -8 -131 0 -137 -1 -160 -25 -38 -37 -35
-95 6 -129 l31 -26 260 0 260 0 29 29 29 29 0 260 0 260 -26 31 c-20 25 -34
31 -64 31 -22 0 -47 -8 -61 -19 -23 -18 -24 -27 -29 -160 l-5 -141 -285 284
c-156 157 -297 291 -311 300 -32 19 -56 20 -89 3z"/>
</g>
</svg>
