<?xml version="1.0" standalone="no"?>
<!DOCTYPE svg PUBLIC "-//W3C//DTD SVG 20010904//EN"
 "http://www.w3.org/TR/2001/REC-SVG-20010904/DTD/svg10.dtd">
<svg version="1.0" xmlns="http://www.w3.org/2000/svg"
 width="124.000000pt" height="104.000000pt" viewBox="0 0 124.000000 104.000000"
 preserveAspectRatio="xMidYMid meet">
<metadata>
Created by potrace 1.10, written by Peter Selinger 2001-2011
</metadata>
<g transform="translate(0.000000,104.000000) scale(0.100000,-0.100000)"
fill="#000000" stroke="none">
<path d="M44 781 c-2 -2 -4 -111 -4 -242 l0 -238 510 0 510 0 -2 240 -3 240
-503 2 c-277 1 -506 0 -508 -2z m986 -238 l0 -198 -45 0 c-44 0 -44 0 -47 38
l-3 38 -385 0 -385 -1 -3 -37 c-3 -38 -3 -38 -47 -38 l-45 0 0 198 0 197 480
0 480 0 0 -197z m-125 -171 l0 -23 -358 -2 -357 -2 0 28 0 27 358 -2 357 -3 0
-23z"/>
<path d="M573 13 c126 -2 328 -2 450 0 122 1 20 2 -228 2 -247 0 -347 -1 -222
-2z"/>
</g>
</svg>
