<?xml version="1.0" standalone="no"?>
<!DOCTYPE svg PUBLIC "-//W3C//DTD SVG 20010904//EN"
 "http://www.w3.org/TR/2001/REC-SVG-20010904/DTD/svg10.dtd">
<svg version="1.0" xmlns="http://www.w3.org/2000/svg"
 width="280.000000pt" height="178.000000pt" viewBox="0 0 280.000000 178.000000"
 preserveAspectRatio="xMidYMid meet">
<metadata>
Created by potrace 1.10, written by Peter Selinger 2001-2011
</metadata>
<g transform="translate(0.000000,178.000000) scale(0.100000,-0.100000)"
fill="#000000" stroke="none">
<path d="M803 1583 c-29 -3 -43 -9 -43 -18 0 -11 8 -13 33 -7 41 9 178 9 237
0 50 -8 122 -35 131 -50 3 -5 9 -2 12 6 6 16 3 19 -63 42 -73 26 -196 37 -307
27z"/>
<path d="M667 1545 c-74 -30 -150 -76 -207 -126 -37 -32 -42 -40 -30 -48 11
-8 17 -5 22 9 16 43 212 160 268 160 20 0 27 14 12 24 -4 2 -34 -6 -65 -19z"/>
<path d="M1202 1504 c2 -11 9 -18 14 -17 6 1 55 -32 110 -72 107 -80 234 -145
234 -119 0 8 -7 14 -15 14 -26 0 -153 69 -193 104 -32 28 -99 76 -140 100 -10
6 -13 3 -10 -10z"/>
<path d="M910 1460 c0 -5 7 -10 15 -10 8 0 14 -5 13 -11 -2 -6 3 -14 11 -17
10 -3 12 0 8 12 -4 10 -7 22 -7 27 0 5 -9 9 -20 9 -11 0 -20 -4 -20 -10z"/>
<path d="M965 1461 c3 -5 20 -13 38 -16 17 -4 35 -13 39 -19 5 -8 10 -8 19 1
10 10 7 14 -12 21 -40 15 -90 22 -84 13z"/>
<path d="M711 1435 c-120 -47 -228 -140 -290 -250 -41 -73 -80 -195 -62 -195
4 0 14 26 20 58 6 32 21 69 32 81 12 12 18 25 15 28 -3 3 8 19 24 35 17 15 30
35 30 43 0 8 6 18 13 22 8 4 22 21 32 36 13 21 20 25 26 15 5 -7 9 -9 9 -4 0
6 7 1 15 -10 13 -17 13 -16 2 14 -10 27 -9 34 3 42 8 5 20 8 25 6 6 -1 20 8
31 22 18 21 25 22 43 12 19 -10 22 -9 19 6 -2 12 9 21 40 31 23 8 42 19 42 24
0 11 7 13 -69 -16z"/>
<path d="M790 1443 c0 -19 47 -47 55 -33 3 4 -5 11 -18 15 -13 4 -17 8 -9 12
19 8 14 23 -8 23 -12 0 -20 -7 -20 -17z"/>
<path d="M1080 1432 c0 -5 17 -17 37 -28 21 -11 48 -38 61 -59 l24 -40 -6 33
c-6 38 11 41 29 5 6 -11 16 -18 23 -15 9 3 10 -3 2 -23 -13 -34 -13 -70 0 -37
12 29 23 28 56 -4 16 -17 29 -23 33 -16 7 12 30 -4 47 -33 9 -16 27 -22 84
-27 75 -8 92 -14 75 -26 -6 -4 -11 -13 -13 -21 -2 -10 4 -12 22 -7 15 4 26 1
28 -6 2 -6 10 -8 16 -4 20 12 13 24 -15 29 -16 2 -6 5 23 6 35 1 56 -4 64 -14
7 -8 15 -13 19 -10 4 2 7 -5 7 -17 -1 -12 5 -23 13 -26 11 -4 13 2 8 27 l-7
31 30 -15 c27 -14 31 -14 36 0 7 16 44 21 44 5 0 -5 9 -10 20 -10 10 0 23 -6
27 -14 11 -18 53 -40 53 -27 0 6 -14 18 -31 27 -45 23 -24 42 29 26 47 -14 75
-15 68 -3 -3 5 12 7 35 5 22 -2 49 1 60 7 28 14 36 4 16 -19 -21 -23 -21 -32
-2 -32 8 0 15 7 15 15 0 16 30 35 55 35 9 0 14 -4 11 -9 -4 -5 4 -7 16 -3 20
5 21 3 10 -11 -12 -14 -10 -15 15 -8 17 5 40 3 59 -5 17 -7 34 -10 38 -7 3 4
6 1 6 -6 0 -7 -13 -29 -29 -49 -16 -20 -39 -62 -51 -92 -27 -73 -38 -242 -19
-325 7 -33 13 -62 14 -65 0 -3 11 -24 23 -47 12 -23 22 -51 22 -62 0 -14 5
-19 14 -15 9 4 16 -2 18 -15 2 -15 7 -18 18 -11 12 8 12 11 -3 28 -9 10 -17
24 -17 30 0 7 -4 12 -10 12 -15 0 -53 91 -54 127 -1 18 -5 33 -9 33 -13 0 -6
217 9 267 22 74 53 130 81 148 14 9 23 12 19 6 -4 -5 5 -18 19 -27 29 -19 31
-32 10 -60 -15 -19 -15 -18 -37 6 l-23 25 -21 -42 c-12 -24 -18 -43 -14 -43 3
0 13 13 21 30 14 28 15 29 36 12 22 -17 22 -18 8 -72 -8 -30 -15 -87 -15 -126
0 -51 -4 -75 -15 -84 -8 -7 -15 -20 -15 -29 1 -11 5 -8 15 9 15 27 18 23 29
-39 3 -19 18 -58 32 -87 14 -29 23 -58 19 -63 -14 -23 25 2 40 26 19 28 15 42
-5 18 -11 -14 -14 -13 -26 2 -19 26 -19 49 1 33 19 -16 20 1 3 33 -11 21 -11
21 -18 2 -6 -18 -8 -18 -21 5 -19 33 -20 303 -1 322 6 6 12 19 12 28 0 8 7 26
16 39 l16 22 19 -20 c10 -11 19 -29 19 -39 0 -22 -23 -46 -33 -35 -4 3 -7 -4
-7 -16 0 -18 3 -20 19 -11 11 5 23 19 26 30 9 29 28 25 21 -5 -6 -24 10 -35
27 -19 6 6 -44 97 -72 128 -35 41 -114 96 -168 117 -56 23 -69 23 -358 24
-285 1 -303 2 -370 24 -100 33 -202 86 -261 136 -44 38 -170 115 -187 115 -4
0 -7 -4 -7 -8z"/>
<path d="M353 1298 c-56 -83 -88 -159 -107 -251 -19 -93 -20 -117 -3 -117 9 0
12 10 9 31 -12 82 85 325 145 362 14 9 18 37 5 37 -4 0 -26 -28 -49 -62z"/>
<path d="M960 1330 c1 -15 33 -60 44 -60 12 0 5 15 -19 45 -15 18 -25 24 -25
15z"/>
<path d="M830 1276 c-22 -50 -24 -60 -11 -52 10 6 43 96 36 96 -3 0 -14 -20
-25 -44z"/>
<path d="M1583 1283 c4 -6 51 -14 104 -17 54 -4 110 -9 126 -12 20 -4 27 -2
27 10 0 13 -14 16 -84 16 -46 0 -105 3 -131 7 -32 4 -46 3 -42 -4z"/>
<path d="M1945 1279 c-117 -7 -100 -11 57 -13 96 -1 128 2 128 11 0 13 -8 13
-185 2z"/>
<path d="M1206 1258 c-10 -40 -6 -54 9 -28 8 14 14 31 15 38 0 21 -17 13 -24
-10z"/>
<path d="M2160 1273 c0 -6 25 -13 56 -17 79 -9 236 -90 216 -111 -4 -5 -1 -5
6 -1 6 4 12 11 12 17 0 13 -96 72 -150 92 -58 21 -140 33 -140 20z"/>
<path d="M1226 1213 c-3 -4 -6 -18 -6 -32 0 -19 3 -22 9 -12 5 7 14 10 20 7 7
-4 11 1 11 12 0 20 -23 36 -34 25z"/>
<path d="M1175 1182 c-12 -9 -32 -39 -45 -70 -6 -13 -22 -25 -40 -28 -16 -4
-30 -10 -30 -15 0 -11 3 -11 34 1 15 5 39 30 55 54 21 34 31 42 39 34 9 -9 12
-7 12 10 0 23 -8 27 -25 14z"/>
<path d="M876 1135 c-9 -14 -21 -23 -26 -20 -5 3 -11 1 -14 -4 -12 -19 12 -20
29 -1 10 11 24 20 32 20 7 0 13 7 13 15 0 23 -16 18 -34 -10z"/>
<path d="M1644 1135 c-4 -8 -13 -15 -22 -15 -8 0 -12 -3 -9 -7 10 -10 67 -11
67 -1 0 4 -7 8 -15 8 -9 0 -12 6 -9 15 4 8 3 15 0 15 -4 0 -9 -7 -12 -15z"/>
<path d="M2460 1136 c0 -7 15 -25 33 -38 37 -29 110 -155 104 -180 -4 -16 20
-34 31 -24 9 10 -65 151 -107 204 -41 52 -61 64 -61 38z"/>
<path d="M2169 1115 c-1 -5 -2 -14 -3 -20 -1 -5 -11 -29 -23 -51 -48 -90 -65
-161 -66 -268 0 -103 4 -147 18 -179 4 -9 5 -24 2 -32 -4 -8 -2 -17 3 -20 6
-3 21 -30 36 -58 28 -57 39 -73 71 -100 20 -17 23 -17 53 -2 18 9 30 19 27 22
-3 2 -15 -1 -27 -7 -19 -10 -26 -8 -54 19 -74 71 -113 193 -81 247 l17 29 -19
-23 c-10 -13 -22 -20 -26 -16 -12 12 -8 159 7 236 8 41 29 101 49 139 24 45
32 70 26 80 -5 8 -9 10 -10 4z"/>
<path d="M992 1088 c-20 -20 -13 -33 18 -33 17 0 30 5 30 13 0 6 -10 12 -22
12 -19 0 -20 2 -8 10 8 5 10 10 5 10 -6 0 -16 -5 -23 -12z"/>
<path d="M794 1082 c-12 -1 -26 -14 -32 -28 -13 -26 -2 -33 17 -10 7 8 21 12
31 9 14 -4 20 0 20 10 0 19 -9 24 -36 19z"/>
<path d="M1721 1054 c-17 -37 -14 -40 14 -14 22 21 29 22 46 12 17 -11 18 -11
8 6 -17 28 -54 26 -68 -4z"/>
<path d="M1940 1064 c0 -14 2 -14 16 -3 14 11 18 10 31 -6 15 -20 15 -20 11 0
-4 26 -58 35 -58 9z"/>
<path d="M1190 1039 c0 -20 21 -49 35 -49 11 0 12 6 4 30 -10 28 -39 43 -39
19z"/>
<path d="M390 1009 c0 -6 16 -26 35 -45 19 -18 35 -39 35 -45 0 -7 3 -9 6 -6
4 4 -1 19 -11 34 -23 35 -65 75 -65 62z"/>
<path d="M1332 973 c-11 -24 -16 -43 -12 -43 5 0 13 14 19 30 5 17 14 30 18
30 4 -1 20 -17 36 -37 15 -20 27 -29 27 -21 0 8 -15 31 -34 50 l-34 35 -20
-44z"/>
<path d="M594 996 c11 -9 34 -16 50 -15 l31 1 -30 8 c-16 4 -39 11 -50 15 -20
7 -20 6 -1 -9z"/>
<path d="M1690 981 c0 -16 25 -55 56 -88 6 -7 15 -28 18 -48 4 -19 11 -35 16
-35 14 0 12 10 -14 60 -75 144 -76 146 -76 111z"/>
<path d="M536 955 c-19 -44 -19 -45 -7 -45 11 0 36 69 28 77 -3 3 -13 -12 -21
-32z"/>
<path d="M730 977 c0 -7 14 -28 30 -47 l30 -35 -22 48 c-21 45 -38 61 -38 34z"/>
<path d="M1495 963 c-3 -16 -14 -37 -23 -47 -16 -18 -16 -18 4 -8 12 7 27 26
33 43 13 39 13 39 2 39 -5 0 -12 -12 -16 -27z"/>
<path d="M363 973 c-28 -11 -5 -225 27 -257 5 -5 10 -17 10 -27 0 -26 84 -144
102 -143 8 1 15 -6 14 -14 -2 -33 192 -152 246 -152 20 1 21 2 6 11 -10 5 -15
16 -12 24 4 8 1 15 -6 15 -6 0 -9 -4 -6 -9 3 -5 -1 -11 -9 -15 -8 -3 -15 -2
-15 3 0 5 -25 21 -56 36 -64 31 -72 44 -49 78 11 17 13 27 6 32 -10 6 -31 -32
-31 -56 0 -5 -4 -9 -9 -9 -5 0 -7 9 -4 19 3 14 -2 21 -18 26 -27 9 -41 22 -58
53 -7 14 -18 21 -26 18 -17 -6 -30 10 -15 19 15 10 12 35 -4 29 -8 -3 -17 0
-21 6 -3 6 -1 9 7 8 7 -2 14 7 16 19 3 18 -1 22 -24 20 -22 -2 -29 4 -40 36
-24 69 -33 169 -18 199 20 39 18 44 -13 31z"/>
<path d="M1174 969 c-19 -25 -24 -48 -9 -43 8 3 11 12 8 20 -3 8 -1 14 5 14 5
0 12 -9 15 -20 3 -11 10 -20 16 -20 16 0 13 15 -7 40 -15 18 -20 20 -28 9z"/>
<path d="M1247 974 c-11 -11 -8 -54 4 -54 5 0 7 5 4 10 -3 6 -1 10 5 10 7 0 9
-8 5 -20 -8 -24 10 -27 19 -3 4 10 1 22 -7 28 -7 5 -16 16 -18 23 -2 7 -8 10
-12 6z"/>
<path d="M1020 951 c0 -11 50 -44 57 -38 2 3 -2 14 -9 26 -13 21 -48 30 -48
12z"/>
<path d="M1649 944 c-10 -12 -24 -15 -52 -11 -51 7 -64 1 -83 -35 l-15 -30 29
22 c16 12 47 24 68 26 22 3 45 7 53 10 7 2 19 0 26 -6 11 -9 12 -7 8 10 -7 28
-18 33 -34 14z"/>
<path d="M1975 951 c-3 -5 9 -17 26 -25 41 -20 41 -21 27 9 -11 25 -41 34 -53
16z"/>
<path d="M680 934 c-24 -15 -24 -15 -2 -11 12 3 29 -1 37 -10 16 -15 19 -6 9
21 -7 19 -12 19 -44 0z"/>
<path d="M579 927 c-18 -13 -59 -98 -59 -119 1 -7 11 7 23 32 16 34 33 50 66
66 33 16 39 22 26 27 -24 10 -38 8 -56 -6z"/>
<path d="M234 848 c10 -88 33 -162 72 -238 43 -82 60 -104 73 -96 6 4 0 17
-14 32 -52 56 -122 256 -112 320 4 24 1 34 -10 38 -14 6 -15 -2 -9 -56z"/>
<path d="M1220 891 c0 -10 8 -25 17 -32 15 -12 16 -12 10 4 -4 10 -7 25 -7 33
0 8 -4 14 -10 14 -5 0 -10 -8 -10 -19z"/>
<path d="M925 866 c3 -28 -1 -46 -15 -64 -11 -13 -20 -32 -20 -41 1 -14 2 -14
14 1 7 10 17 14 22 10 4 -4 3 0 -4 10 -8 10 -9 19 -3 22 5 3 12 0 14 -6 9 -21
5 45 -4 77 -7 27 -8 26 -4 -9z"/>
<path d="M1266 850 c3 -14 7 -35 8 -47 0 -13 4 -23 9 -23 11 0 7 32 -9 65 -12
25 -13 26 -8 5z"/>
<path d="M1290 865 c0 -6 5 -16 11 -22 5 -5 11 -25 11 -44 1 -30 2 -31 11 -12
7 17 5 30 -12 55 -11 18 -21 28 -21 23z"/>
<path d="M2260 851 c6 -12 12 -36 12 -53 1 -24 3 -27 10 -13 10 17 -6 70 -24
81 -6 4 -5 -3 2 -15z"/>
<path d="M1892 832 c-1 -18 -7 -43 -13 -55 -11 -20 -10 -21 6 -6 11 11 15 28
12 55 -3 37 -4 37 -5 6z"/>
<path d="M2434 823 c-3 -16 -12 -49 -20 -75 -20 -66 -16 -127 8 -112 5 3 4 11
-2 19 -13 16 -5 35 15 35 10 0 13 19 13 80 0 84 -4 99 -14 53z"/>
<path d="M2490 805 c0 -35 3 -43 15 -39 10 4 15 20 15 45 0 28 -4 39 -15 39
-11 0 -15 -12 -15 -45z"/>
<path d="M2580 840 l-45 -7 53 -1 c29 -1 52 2 52 8 0 6 -3 9 -7 8 -5 0 -28 -4
-53 -8z"/>
<path d="M1852 776 c-6 -22 -9 -42 -7 -44 7 -8 26 50 22 67 -2 9 -9 -2 -15
-23z"/>
<path d="M2629 803 c-1 -4 0 -23 1 -41 1 -20 -5 -41 -16 -53 -16 -18 -16 -19
3 -19 21 0 33 32 33 86 0 21 -19 45 -21 27z"/>
<path d="M502 756 c-7 -15 -12 -37 -11 -49 0 -19 2 -19 11 6 l10 27 19 -22
c10 -13 18 -17 19 -10 0 6 -4 12 -10 12 -5 0 -13 14 -18 31 l-8 32 -12 -27z"/>
<path d="M1103 766 c3 -8 1 -17 -6 -20 -7 -2 -3 -5 9 -5 11 -1 23 2 27 5 10
10 -4 34 -20 34 -9 0 -13 -6 -10 -14z"/>
<path d="M1452 738 c-17 -52 -9 -60 14 -13 10 22 13 40 8 45 -6 6 -14 -7 -22
-32z"/>
<path d="M613 734 c-29 -17 -43 -33 -48 -54 -4 -16 -11 -32 -16 -35 -5 -4 -14
-16 -20 -28 -10 -20 -10 -21 4 -7 9 8 27 35 40 60 13 25 37 52 53 60 39 20 38
19 33 25 -3 2 -23 -7 -46 -21z"/>
<path d="M1325 741 c-4 -12 -12 -18 -21 -14 -9 3 -14 -2 -14 -16 0 -15 5 -19
18 -14 21 7 42 32 42 50 0 20 -18 15 -25 -6z"/>
<path d="M2285 738 c-4 -14 -8 -18 -12 -10 -6 15 -23 6 -23 -14 0 -21 38 -17
50 5 12 24 13 41 1 41 -5 0 -12 -10 -16 -22z"/>
<path d="M2500 741 c-15 -28 -12 -51 5 -51 10 0 15 11 15 35 0 40 -5 43 -20
16z"/>
<path d="M732 735 c2 -12 15 -23 33 -28 17 -5 38 -13 48 -18 23 -12 23 13 0
32 -11 10 -14 10 -9 2 14 -24 -41 -14 -58 10 -15 20 -16 20 -14 2z"/>
<path d="M931 731 c-6 -11 -11 -28 -11 -38 1 -17 1 -17 11 0 5 9 19 17 30 17
14 0 19 5 17 17 -5 25 -35 28 -47 4z"/>
<path d="M1257 743 c-8 -12 -21 -89 -14 -83 13 13 35 80 27 85 -5 3 -11 2 -13
-2z"/>
<path d="M1690 739 c0 -23 21 -39 52 -39 15 0 32 -8 38 -17 9 -16 10 -15 8 7
-3 22 -7 25 -35 22 -23 -2 -35 3 -47 20 -11 15 -16 18 -16 7z"/>
<path d="M1886 721 c-21 -39 -20 -62 0 -32 11 16 24 22 39 18 20 -3 22 -1 15
17 -11 32 -37 31 -54 -3z"/>
<path d="M1154 675 c-8 -13 -14 -32 -11 -42 4 -16 6 -15 12 5 4 12 11 22 16
22 4 0 7 9 6 20 -2 25 -3 25 -23 -5z"/>
<path d="M1515 666 c-9 -19 -23 -40 -30 -46 -15 -13 -8 -50 10 -50 7 0 18 6
24 14 10 12 8 13 -8 9 -27 -7 -26 -1 5 53 15 25 24 47 21 50 -3 3 -13 -10 -22
-30z"/>
<path d="M876 655 c4 -8 1 -15 -5 -15 -6 0 -11 5 -11 10 0 6 -4 10 -10 10 -13
0 -13 -27 0 -35 6 -4 17 -1 25 5 17 14 20 40 5 40 -5 0 -7 -7 -4 -15z"/>
<path d="M1801 654 c0 -11 2 -24 5 -27 11 -11 44 13 44 31 -1 16 -2 16 -14 0
-7 -10 -16 -18 -19 -18 -3 0 -8 8 -10 18 -4 14 -5 13 -6 -4z"/>
<path d="M2454 642 c-26 -18 -26 -72 1 -72 17 0 32 19 40 53 6 22 4 27 -11 27
-11 0 -24 -4 -30 -8z"/>
<path d="M2606 642 c-14 -3 -16 -6 -6 -12 11 -7 6 -24 -23 -82 -42 -86 -73
-128 -93 -128 -16 0 -19 -16 -5 -24 22 -14 112 118 141 207 13 43 13 45 -14
39z"/>
<path d="M671 609 c-13 -10 -29 -19 -37 -19 -19 0 -18 -16 2 -24 9 -4 28 1 41
9 13 9 28 13 33 10 15 -9 12 21 -2 33 -9 7 -20 5 -37 -9z"/>
<path d="M1643 618 c-14 -16 -5 -32 20 -34 20 -2 22 6 4 30 -11 15 -15 16 -24
4z"/>
<path d="M1429 608 c-1 -5 -2 -11 -3 -15 -1 -5 -5 -15 -10 -23 -5 -8 -6 -12
-1 -8 4 4 16 3 26 -3 14 -7 19 -6 19 4 0 15 -29 56 -31 45z"/>
<path d="M1237 581 c3 -11 15 -22 26 -25 21 -5 21 -5 3 9 -11 8 -14 15 -8 15
7 0 12 5 12 10 0 6 -9 10 -19 10 -14 0 -18 -5 -14 -19z"/>
<path d="M998 564 c-16 -8 -28 -17 -28 -20 0 -2 9 0 20 6 16 8 18 8 14 -4 -4
-11 1 -14 22 -13 15 1 29 8 32 15 2 8 -2 10 -15 5 -16 -6 -16 -5 -4 10 11 14
11 17 0 17 -8 -1 -26 -8 -41 -16z"/>
<path d="M1958 568 c-34 -12 -37 -36 -5 -33 36 4 37 4 37 19 0 8 6 17 13 19
24 10 -18 6 -45 -5z"/>
<path d="M730 562 c0 -4 9 -13 20 -20 11 -7 20 -19 20 -28 0 -8 4 -13 9 -10
16 10 0 43 -25 55 -13 6 -24 7 -24 3z"/>
<path d="M1562 548 c-7 -7 -12 -23 -12 -37 1 -23 2 -24 11 -8 6 9 14 15 18 13
8 -5 8 30 0 39 -3 2 -11 -1 -17 -7z"/>
<path d="M1497 531 c-10 -4 -18 -10 -18 -13 0 -4 -13 -21 -30 -39 -16 -17 -29
-36 -29 -42 0 -6 17 9 39 32 26 28 44 39 55 35 12 -4 16 0 16 15 0 22 -4 24
-33 12z"/>
<path d="M1325 474 c-21 -44 -14 -54 14 -18 23 29 26 40 12 48 -5 3 -16 -10
-26 -30z"/>
<path d="M390 494 c0 -39 172 -172 256 -198 16 -5 23 -2 27 14 4 16 2 19 -7
11 -15 -13 -113 33 -161 74 -74 65 -85 76 -85 90 0 8 -7 15 -15 15 -8 0 -15
-3 -15 -6z"/>
<path d="M1130 487 c0 -4 11 -29 25 -55 21 -39 23 -48 10 -50 -8 -2 -13 -8
-10 -13 9 -14 45 -11 45 4 0 13 -69 127 -70 114z"/>
<path d="M1748 468 c-2 -13 -13 -27 -25 -33 -12 -5 -24 -16 -26 -25 -3 -8 -8
-23 -12 -33 -6 -16 -4 -18 15 -15 13 1 25 9 28 16 2 8 -2 10 -13 5 -14 -5 -16
-3 -7 13 6 10 22 30 36 43 20 19 29 22 38 13 7 -7 16 -12 20 -12 14 0 9 27 -7
40 -13 11 -14 10 -9 -4 5 -12 2 -15 -10 -10 -9 3 -13 10 -10 15 3 5 1 9 -5 9
-5 0 -11 -10 -13 -22z"/>
<path d="M810 473 c-18 -7 -39 -34 -39 -48 0 -5 7 0 16 13 15 21 41 33 28 12
-3 -5 3 -10 15 -10 15 0 20 5 18 17 -3 19 -16 24 -38 16z"/>
<path d="M860 413 c0 -12 -3 -28 -6 -37 -4 -12 0 -16 15 -16 25 0 28 27 6 56
-14 19 -14 19 -15 -3z"/>
<path d="M1820 420 c0 -8 -3 -25 -6 -37 -5 -19 -2 -23 15 -23 25 0 28 27 6 56
-11 14 -14 15 -15 4z"/>
<path d="M2126 408 c6 -27 5 -28 -35 -28 -23 0 -41 -4 -41 -9 0 -5 25 -9 55
-8 60 2 67 11 35 48 l-20 24 6 -27z"/>
<path d="M989 404 c14 -30 38 -47 56 -40 24 9 18 28 -7 21 -15 -6 -26 -1 -40
16 -16 20 -18 21 -9 3z"/>
<path d="M1479 407 c-1 -4 -2 -10 -3 -14 -1 -5 -5 -14 -9 -20 -5 -9 -3 -13 8
-13 20 0 31 28 16 43 -6 6 -12 8 -12 4z"/>
<path d="M1283 388 c-32 -15 -29 -28 7 -28 23 0 30 4 30 20 0 22 -5 23 -37 8z"/>
<path d="M920 374 c0 -9 11 -14 31 -14 38 0 35 22 -4 26 -18 2 -27 -2 -27 -12z"/>
<path d="M1089 374 c-9 -11 -6 -14 20 -14 34 0 42 15 11 23 -10 3 -24 -1 -31
-9z"/>
<path d="M1910 380 c-7 -4 -19 -6 -27 -3 -7 3 -13 0 -13 -6 0 -6 16 -11 35
-11 19 0 35 4 35 9 0 15 -15 21 -30 11z"/>
<path d="M1972 373 c14 -17 33 -16 47 0 8 11 4 13 -23 13 -26 -1 -32 -4 -24
-13z"/>
<path d="M2442 384 c12 -11 -27 -40 -60 -44 -4 -1 -14 -8 -22 -15 -27 -25
-111 -55 -163 -59 -29 -2 -50 -8 -47 -13 15 -25 172 21 259 77 34 22 61 41 61
44 0 2 -8 7 -17 10 -10 4 -14 4 -11 0z"/>
<path d="M695 283 c21 -21 115 -35 243 -37 89 -2 132 1 132 8 0 7 -31 10 -94
8 -83 -3 -188 7 -266 25 -17 4 -22 2 -15 -4z"/>
<path d="M1100 252 c0 -10 41 -12 185 -10 102 2 185 7 185 11 0 4 -83 9 -185
10 -144 2 -185 -1 -185 -11z"/>
<path d="M1504 261 c-2 -2 -4 -7 -4 -11 0 -8 254 -1 258 8 2 7 -246 10 -254 3z"/>
<path d="M1783 258 c-5 -10 -17 -9 174 -11 90 -1 162 2 160 6 -3 10 -327 14
-334 5z"/>
</g>
</svg>
