<?xml version="1.0" standalone="no"?>
<!DOCTYPE svg PUBLIC "-//W3C//DTD SVG 20010904//EN"
 "http://www.w3.org/TR/2001/REC-SVG-20010904/DTD/svg10.dtd">
<svg version="1.0" xmlns="http://www.w3.org/2000/svg"
 width="138.000000pt" height="72.000000pt" viewBox="0 0 138.000000 72.000000"
 preserveAspectRatio="xMidYMid meet">
<metadata>
Created by potrace 1.10, written by Peter Selinger 2001-2011
</metadata>
<g transform="translate(0.000000,72.000000) scale(0.100000,-0.100000)"
fill="#000000" stroke="none">
<path d="M40 461 l0 -80 530 0 530 0 0 80 0 79 -530 0 -530 0 0 -79z m1034 2
c1 -27 -4 -45 -12 -48 -21 -8 -976 -6 -988 3 -9 5 -12 72 -5 90 1 1 227 1 502
0 l502 -3 1 -42z"/>
<path d="M1373 460 c0 -47 2 -66 4 -42 2 23 2 61 0 85 -2 23 -4 4 -4 -43z"/>
</g>
</svg>
